<mxfile host="app.diagrams.net" modified="2024-04-24T18:41:14.898Z" agent="Mozilla/5.0 (Windows NT 10.0; Win64; x64) AppleWebKit/537.36 (KHTML, like Gecko) Chrome/124.0.0.0 Safari/537.36 Edg/124.0.0.0" version="24.2.5" etag="hasHJp-SHv_gXBCcuOtd" type="github">
  <diagram name="Page-1" id="P6mKS4hmKZ5KteQgWjBS">
    <mxGraphModel>
      <root>
        <mxCell id="0" />
        <mxCell id="1" parent="0" />
      </root>
    </mxGraphModel>
  </diagram>
</mxfile>
